<svg width="164" height="48" viewBox="0 0 164 48" fill="none" xmlns="http://www.w3.org/2000/svg">
<path d="M37.604 5.92721H33.6441V14.6591C33.6441 16.7693 32.4301 17.8965 30.4347 17.8965C28.6705 17.8965 27.8611 16.9135 27.8611 14.774V5.92721H23.8998V15.988C23.8998 19.3723 25.9232 21.1352 28.7279 21.1352C31.3296 21.1352 32.8053 19.9493 33.5853 18.6778H33.6427V20.7012H37.604V5.92721Z" fill="white"/>
<path d="M27.9479 0C26.6751 0 25.9526 0.925543 25.9526 1.99533C25.9526 3.06511 26.6751 3.96127 27.9479 3.96127C29.2207 3.96127 29.9432 3.06511 29.9432 1.99533C29.9432 0.925543 29.2207 0 27.9479 0Z" fill="white"/>
<path d="M33.2674 0C31.9947 0 31.2721 0.925543 31.2721 1.99533C31.2721 3.06511 31.9947 3.96127 33.2674 3.96127C34.5402 3.96127 35.2628 3.06511 35.2628 1.99533C35.2628 0.925543 34.5402 0 33.2674 0Z" fill="white"/>
<path d="M22.0608 20.7025V10.6124C22.0608 7.31619 20.3833 5.46511 17.405 5.46511C15.0638 5.46511 13.7042 6.59232 12.4902 8.06678H12.4327C11.8544 6.47746 10.5242 5.46511 8.55826 5.46511C6.33189 5.46511 4.8 6.67913 4.0187 7.95192H3.96127V5.92855H0V20.7038H3.9626V11.972C3.9626 9.83239 5.06177 8.73322 6.76728 8.73322C8.58765 8.73322 9.0217 9.68681 9.0217 11.8264V20.7038H12.983V11.972C12.983 9.83239 14.0821 8.73322 15.7876 8.73322C17.608 8.73322 18.0715 9.68681 18.0715 11.8264V20.7025H22.0608Z" fill="white"/>
<path d="M53.1766 10.6124V20.7025H49.1873V11.8264C49.1873 9.68681 48.378 8.73322 46.6431 8.73322C44.6197 8.73322 43.4043 9.83238 43.4043 11.9719V20.7038H39.4431V0.0293784H43.4043V7.95192H43.4618C44.2431 6.67913 45.7175 5.4651 48.3192 5.4651C51.1239 5.4651 53.1766 7.22804 53.1766 10.6124Z" fill="white"/>
<path d="M55.0144 0.0293784V20.7025H58.9756V0.0293784H55.0144Z" fill="white"/>
<path fill-rule="evenodd" clip-rule="evenodd" d="M75.7035 14.3706H64.804C64.8321 16.5676 66.2785 18.1289 68.4474 18.1289C70.4427 18.1289 71.2521 17.0297 71.5406 16.191H75.5593C74.7499 19.1399 72.4074 21.1633 68.3312 21.1633C63.59 21.1633 60.8134 17.8965 60.8134 13.2995C60.8134 8.70251 63.5312 5.43573 68.3312 5.43573C73.1312 5.43573 75.7048 8.41403 75.7048 13.5306V14.3693L75.7035 14.3706ZM71.6848 11.7396C71.6848 9.68681 70.384 8.41403 68.3018 8.41403C66.3359 8.41403 64.9763 9.65743 64.804 11.7396H71.6848Z" fill="white"/>
<path d="M99.602 20.7025V10.6124H99.6033C99.6033 7.31619 97.9259 5.46511 94.9476 5.46511C92.6064 5.46511 91.2467 6.59232 90.0327 8.06678H89.9753C89.397 6.47746 88.0668 5.46511 86.1008 5.46511C83.8745 5.46511 82.3426 6.67913 81.5613 7.95192H81.5038V5.92855H77.5426V20.7038H81.5038V11.972C81.5038 9.83239 82.603 8.73322 84.3085 8.73322C86.1289 8.73322 86.5629 9.68681 86.5629 11.8264V20.7038H90.5242V11.972C90.5242 9.83239 91.6234 8.73322 93.3289 8.73322C95.1493 8.73322 95.6127 9.68681 95.6127 11.8264V20.7025H99.602Z" fill="white"/>
<path fill-rule="evenodd" clip-rule="evenodd" d="M101.436 16.8574C101.436 13.7055 103.952 12.5783 107.306 11.9132C107.454 11.883 107.604 11.8536 107.753 11.8243C109.46 11.4884 111.123 11.1612 111.123 9.83105C111.123 8.90551 110.487 8.2404 108.839 8.2404C106.843 8.2404 106.034 8.99232 105.89 10.6404H102.073C102.217 7.80635 104.212 5.43573 109.012 5.43573C112.685 5.43573 114.969 6.93957 114.969 11.1893V17.3195C114.969 18.2157 115.085 18.6204 115.577 18.6204C115.693 18.6204 115.78 18.6204 115.952 18.591V20.6144C115.172 20.7586 114.391 20.8454 113.812 20.8454C112.135 20.8454 111.412 20.2097 111.211 18.7927H111.153C110.141 20.1803 108.435 21.1352 106.209 21.1352C103.288 21.1352 101.438 19.4297 101.438 16.8561L101.436 16.8574ZM111.121 13.2434C110.572 13.5319 109.676 13.7629 108.346 14.0821C106.293 14.5162 105.512 15.2387 105.512 16.4821C105.512 17.7255 106.264 18.3038 107.651 18.3038C109.762 18.3038 111.121 16.8294 111.121 14.806V13.2434Z" fill="white"/>
<path d="M131.522 20.7025V10.6124C131.522 7.22804 129.469 5.46511 126.664 5.46511C124.063 5.46511 122.588 6.67913 121.807 7.95192H121.75V5.92855H117.788V20.7038H121.75V11.972C121.75 9.83239 122.965 8.73322 124.988 8.73322C126.723 8.73322 127.533 9.68681 127.533 11.8264V20.7025H131.522Z" fill="white"/>
<path d="M147.093 10.6124V20.7025H143.104V11.8264C143.104 9.68681 142.294 8.73322 140.56 8.73322C138.536 8.73322 137.321 9.83239 137.321 11.972V20.7038H133.36V5.92855H137.321V7.95192H137.378C138.16 6.67913 139.634 5.46511 142.236 5.46511C145.04 5.46511 147.093 7.22804 147.093 10.6124Z" fill="white"/>
<path d="M154.331 15.1573V20.7038H158.007V15.1586H163.342V11.4818H158.007V5.9379H154.331V11.4805H148.967V15.1573H154.331Z" fill="white"/>
<path fill-rule="evenodd" clip-rule="evenodd" d="M14.9316 35.4277C14.9313 40.2847 12.2709 43.2628 8.42605 43.2628C6.19967 43.2628 4.69717 42.1636 4.03072 41.2394H3.97329V47.9466H0.0120236V28.0548H3.97329V29.616H4.03072C4.69583 28.7492 6.19967 27.5927 8.42605 27.5927C12.2709 27.5927 14.9313 30.5707 14.9316 35.4277ZM10.826 35.427C10.826 32.5356 9.64007 30.6564 7.44308 30.6564C5.24608 30.6564 4.03072 32.3913 4.03072 35.427C4.03072 38.4628 5.30351 40.227 7.44308 40.227C9.58264 40.227 10.826 38.3185 10.826 35.427Z" fill="white"/>
<path fill-rule="evenodd" clip-rule="evenodd" d="M24.5182 27.578C19.6888 27.578 16.7693 30.8447 16.7693 35.4711C16.7693 40.1255 19.6301 43.3055 24.4594 43.3055C29.2888 43.3055 32.2084 40.0668 32.2084 35.4123C32.2084 30.7579 29.3476 27.578 24.5182 27.578ZM24.4888 30.6417C26.9169 30.6417 28.1603 32.4928 28.1603 35.4417C28.1603 38.3907 26.9182 40.2698 24.4888 40.2698C22.0594 40.2698 20.816 38.3907 20.816 35.4417C20.816 32.4928 22.0608 30.6417 24.4888 30.6417Z" fill="white"/>
<path fill-rule="evenodd" clip-rule="evenodd" d="M48.9656 35.4277C48.9654 40.2847 46.305 43.2628 42.4601 43.2628C40.2337 43.2628 38.7312 42.1636 38.0648 41.2394H38.0073V47.9466H34.0461V28.0548H38.0073V29.616H38.0648C38.7299 28.7492 40.2337 27.5927 42.4601 27.5927C46.305 27.5927 48.9654 30.5707 48.9656 35.4277ZM44.8601 35.427C44.8601 32.5356 43.6741 30.6564 41.4771 30.6564C39.2801 30.6564 38.0648 32.3913 38.0648 35.427C38.0648 38.4628 39.3376 40.227 41.4771 40.227C43.6167 40.227 44.8601 38.3185 44.8601 35.427Z" fill="white"/>
<path fill-rule="evenodd" clip-rule="evenodd" d="M59.1653 43.3162C63.0102 43.3162 65.6705 40.3382 65.6708 35.4811V35.4818V35.4805V35.4811C65.6705 30.6241 63.0102 27.6461 59.1653 27.6461C56.9389 27.6461 55.435 28.8027 54.7699 29.6695H54.7125V28.1082H50.7512V48H54.7125V41.2928H54.7699C55.4364 42.217 56.9389 43.3162 59.1653 43.3162ZM58.1823 30.7099C60.3793 30.7099 61.5653 32.589 61.5653 35.4805C61.5653 38.372 60.3219 40.2805 58.1823 40.2805C56.0427 40.2805 54.7699 38.5162 54.7699 35.4805C54.7699 32.4447 55.9853 30.7099 58.1823 30.7099Z" fill="white"/>
</svg> 